<?xml version="1.0" standalone="no"?>
<!DOCTYPE svg PUBLIC "-//W3C//DTD SVG 20010904//EN"
 "http://www.w3.org/TR/2001/REC-SVG-20010904/DTD/svg10.dtd">
<svg version="1.0" xmlns="http://www.w3.org/2000/svg"
 width="793.000000pt" height="793.000000pt" viewBox="0 0 793.000000 793.000000"
 preserveAspectRatio="xMidYMid meet">
<metadata>
Created by potrace 1.11, written by Peter Selinger 2001-2013
</metadata>
<g transform="translate(0.000000,793.000000) scale(0.100000,-0.100000)"
fill="#000000" stroke="none">
<path d="M3490 6420 c-16 -6 -6 -7 30 -3 30 3 57 7 59 9 8 7 -64 2 -89 -6z"/>
<path d="M3938 6423 c6 -2 18 -2 25 0 6 3 1 5 -13 5 -14 0 -19 -2 -12 -5z"/>
<path d="M3598 6393 c-21 -2 -38 -8 -38 -13 0 -5 15 -7 33 -4 17 3 59 9 92 13
l60 9 -55 -1 c-30 0 -72 -2 -92 -4z"/>
<path d="M3948 6383 c7 -3 16 -2 19 1 4 3 -2 6 -13 5 -11 0 -14 -3 -6 -6z"/>
<path d="M4148 6383 c7 -3 16 -2 19 1 4 3 -2 6 -13 5 -11 0 -14 -3 -6 -6z"/>
<path d="M4460 6381 c0 -19 101 -61 158 -66 l57 -5 -81 34 c-95 39 -134 50
-134 37z"/>
<path d="M2583 6357 c-15 -33 -17 -96 -3 -117 16 -25 21 -5 18 71 -3 68 -4 71
-15 46z"/>
<path d="M3325 6340 c-3 -6 1 -7 9 -4 18 7 21 14 7 14 -6 0 -13 -4 -16 -10z"/>
<path d="M4202 6288 c-53 -206 -57 -228 -43 -228 5 0 22 -5 38 -12 35 -14 89
-34 218 -82 55 -20 109 -40 120 -46 11 -5 52 -21 90 -36 39 -14 84 -32 100
-40 17 -7 64 -27 105 -43 l75 -30 3 46 c2 25 -2 77 -9 117 -6 39 -13 84 -14
100 -5 46 -46 62 -65 26 -14 -26 -26 -25 -96 6 -91 40 -243 104 -299 124 -87
31 -101 40 -125 86 -14 24 -29 44 -35 44 -5 0 -19 3 -31 6 -18 5 -23 -1 -32
-38z"/>
<path d="M3252 6265 c-17 -37 -14 -45 4 -12 9 16 14 31 11 33 -2 2 -9 -7 -15
-21z"/>
<path d="M4660 6281 c0 -5 7 -12 16 -15 24 -9 27 -7 10 9 -17 17 -26 19 -26 6z"/>
<path d="M3312 6250 c-18 -29 -15 -38 4 -12 9 13 14 25 12 27 -2 2 -9 -5 -16
-15z"/>
<path d="M3130 6194 c41 -20 86 -37 99 -39 14 -1 30 -10 36 -19 7 -9 27 -19
46 -22 48 -10 161 -68 203 -105 20 -17 40 -45 44 -62 7 -27 14 -33 63 -44 29
-8 63 -18 74 -23 11 -5 38 -14 60 -21 43 -13 109 -51 120 -70 4 -6 10 -34 14
-63 l6 -51 110 -6 c61 -3 121 -11 133 -18 13 -7 26 -10 29 -7 4 4 -10 86 -43
249 -4 21 -20 36 -61 60 -30 18 -71 42 -91 55 -89 54 -135 73 -195 79 -73 6
-94 -7 -78 -48 5 -13 10 -20 10 -16 1 4 29 -12 64 -36 34 -25 100 -66 147 -92
121 -68 220 -143 220 -167 0 -14 -54 16 -144 79 -48 35 -93 63 -100 63 -6 0
-23 6 -38 14 -15 8 -59 19 -99 25 -87 14 -158 43 -193 79 -29 32 -40 78 -16
75 9 -2 20 7 25 20 6 12 29 31 51 43 l42 21 -162 23 c-88 13 -164 28 -167 33
-4 6 -24 7 -45 4 -21 -4 -43 -2 -49 3 -5 5 -51 11 -100 14 l-90 6 75 -36z"/>
<path d="M4130 5978 c99 -96 294 -247 305 -237 2 3 -42 41 -98 87 -56 45 -122
101 -147 124 -56 54 -101 88 -114 88 -6 0 19 -28 54 -62z"/>
<path d="M5316 5945 c10 -8 24 -14 29 -14 6 0 1 6 -9 14 -11 8 -24 15 -30 15
-5 0 -1 -7 10 -15z"/>
<path d="M5368 5913 c14 -5 17 -33 3 -33 -5 0 -14 7 -21 15 -7 8 -17 15 -23
15 -5 0 -2 -9 8 -20 14 -15 26 -19 45 -15 22 5 38 -3 80 -37 29 -24 61 -47 71
-53 11 -5 19 -15 19 -21 0 -7 9 -14 20 -17 11 -3 20 -3 20 0 0 13 -210 173
-225 172 -5 0 -4 -3 3 -6z"/>
<path d="M4500 5892 c0 -11 55 -42 74 -42 26 0 19 18 -14 35 -31 16 -60 20
-60 7z"/>
<path d="M4390 5883 c2 -38 107 -132 148 -133 12 0 13 37 3 88 -1 1 -16 2 -33
2 -31 0 -42 5 -97 38 -11 7 -21 9 -21 5z"/>
<path d="M5450 5800 c30 -27 60 -49 65 -49 6 0 4 3 -2 6 -7 2 -13 10 -13 15 0
16 -57 65 -83 72 -15 3 -3 -11 33 -44z"/>
<path d="M4618 5793 c7 -3 16 -2 19 1 4 3 -2 6 -13 5 -11 0 -14 -3 -6 -6z"/>
<path d="M2667 5783 c-4 -3 -7 -16 -7 -27 1 -21 1 -21 15 -2 8 11 15 23 15 28
0 10 -14 11 -23 1z"/>
<path d="M4330 5741 c0 -14 41 -41 62 -41 23 0 23 13 0 33 -20 18 -62 23 -62
8z"/>
<path d="M5530 5732 c0 -12 19 -26 26 -19 2 2 -2 10 -11 17 -9 8 -15 8 -15 2z"/>
<path d="M5610 5735 c0 -11 99 -105 111 -105 4 0 11 -9 14 -20 3 -11 12 -20
18 -20 7 0 20 -12 29 -27 11 -18 18 -22 18 -12 0 14 -110 129 -124 129 -3 0
-20 15 -36 33 -16 17 -30 28 -30 22z"/>
<path d="M4601 5708 c-25 -7 -31 -12 -21 -18 11 -7 10 -13 -3 -34 -22 -32 -21
-36 2 -36 46 0 26 -19 -35 -34 -72 -18 -85 -15 -66 14 18 30 15 40 -14 40 -37
0 -20 18 24 25 20 4 46 9 56 12 18 5 18 6 2 15 -12 6 -27 6 -44 -1 -15 -5 -45
-13 -67 -16 -87 -14 -96 -28 -25 -39 46 -7 48 -12 19 -60 -13 -23 -17 -36 -9
-36 23 0 255 53 263 60 5 4 -12 12 -37 19 -50 12 -53 16 -31 45 12 16 25 19
71 17 78 -4 279 20 262 30 -18 12 -107 10 -211 -5 -66 -9 -90 -9 -95 -1 -5 8
-17 9 -41 3z"/>
<path d="M5635 5630 c3 -5 8 -10 11 -10 2 0 4 5 4 10 0 6 -5 10 -11 10 -5 0
-7 -4 -4 -10z"/>
<path d="M5660 5600 c0 -5 5 -10 11 -10 5 0 7 5 4 10 -3 6 -8 10 -11 10 -2 0
-4 -4 -4 -10z"/>
<path d="M3530 5596 c0 -2 8 -10 18 -17 15 -13 16 -12 3 4 -13 16 -21 21 -21
13z"/>
<path d="M4895 5559 c-3 -24 -5 -84 -3 -134 3 -88 3 -90 33 -104 17 -9 59 -33
94 -54 l64 -38 23 22 c33 31 88 21 197 -35 l89 -46 24 29 c49 58 155 50 291
-22 18 -9 23 -22 26 -67 l3 -55 2 58 c1 31 6 57 10 57 18 0 41 -36 45 -70 l4
-35 1 32 c2 24 6 31 17 27 8 -4 15 -2 15 3 0 15 -55 63 -72 63 -9 0 -25 18
-36 40 -11 23 -23 41 -26 40 -13 -1 -72 33 -96 56 -39 36 -224 173 -229 169
-2 -2 8 -18 23 -35 14 -17 26 -36 26 -41 0 -13 -40 -27 -62 -21 -23 6 -48 40
-48 65 0 24 -65 101 -99 118 -16 7 -82 14 -168 17 l-141 4 -7 -43z"/>
<path d="M3480 5576 c0 -2 8 -10 18 -17 15 -13 16 -12 3 4 -13 16 -21 21 -21
13z"/>
<path d="M5690 5573 c1 -11 50 -46 50 -36 0 9 -36 43 -45 43 -3 0 -5 -3 -5 -7z"/>
<path d="M3582 5544 c10 -10 20 -16 22 -13 3 3 -5 11 -17 18 -21 13 -21 12 -5
-5z"/>
<path d="M4590 5540 c0 -14 48 -35 58 -26 8 9 -26 36 -45 36 -7 0 -13 -5 -13
-10z"/>
<path d="M3520 5536 c0 -2 8 -10 18 -17 15 -13 16 -12 3 4 -13 16 -21 21 -21
13z"/>
<path d="M5810 5530 c0 -5 4 -10 9 -10 5 0 25 -20 45 -44 36 -44 40 -76 10
-76 -8 0 -14 -4 -14 -10 0 -15 16 -12 30 5 7 8 19 15 26 15 22 0 18 7 -37 71
-50 57 -69 70 -69 49z"/>
<path d="M3610 5516 c0 -2 7 -7 16 -10 8 -3 12 -2 9 4 -6 10 -25 14 -25 6z"/>
<path d="M5750 5511 c0 -6 5 -13 10 -16 6 -3 10 1 10 9 0 9 -4 16 -10 16 -5 0
-10 -4 -10 -9z"/>
<path d="M2433 5501 c-17 -12 -31 -59 -37 -127 -10 -106 -25 -154 -53 -167
-17 -7 -23 -18 -23 -41 0 -24 3 -27 10 -16 7 11 10 -2 10 -43 0 -42 4 -59 15
-63 8 -4 15 -13 15 -22 0 -22 29 -52 46 -45 8 3 14 11 14 19 0 27 18 13 73
-58 76 -99 171 -191 199 -193 16 -1 28 -13 40 -37 20 -43 119 -124 161 -132
16 -3 36 -1 43 5 11 9 16 5 24 -16 5 -14 10 -30 10 -34 0 -32 121 -121 163
-121 26 0 17 34 -9 38 -29 4 -42 61 -18 79 14 10 12 16 -21 48 -25 26 -34 42
-29 54 11 27 10 54 -3 58 -8 3 -13 -3 -13 -14 0 -91 -173 -27 -196 72 -4 16
-26 48 -52 71 -39 36 -46 50 -59 110 -9 38 -19 110 -23 159 -13 152 -30 199
-90 243 -16 12 -29 26 -28 30 3 16 -15 93 -23 98 -5 3 -9 16 -9 30 0 30 -13
31 -40 2 -18 -19 -21 -20 -33 -6 -14 18 -50 29 -64 19z"/>
<path d="M5780 5480 c0 -5 5 -10 11 -10 5 0 7 5 4 10 -3 6 -8 10 -11 10 -2 0
-4 -4 -4 -10z"/>
<path d="M4230 5452 c0 -38 26 -93 54 -116 90 -75 160 -117 208 -128 29 -6
114 -12 188 -12 156 -1 190 10 190 64 0 32 0 32 -150 71 -148 39 -259 70 -422
117 -59 17 -68 17 -68 4z"/>
<path d="M3640 5431 c0 -6 4 -13 10 -16 6 -3 7 1 4 9 -7 18 -14 21 -14 7z"/>
<path d="M3700 5436 c0 -2 7 -7 16 -10 8 -3 12 -2 9 4 -6 10 -25 14 -25 6z"/>
<path d="M5830 5431 c0 -17 18 -21 24 -6 3 9 0 15 -9 15 -8 0 -15 -4 -15 -9z"/>
<path d="M3756 5401 c-3 -5 1 -11 9 -14 9 -4 12 -1 8 9 -6 16 -10 17 -17 5z"/>
<path d="M5922 5393 c21 -5 31 -30 19 -50 -11 -21 -2 -53 15 -53 17 0 18 26 2
34 -10 4 -9 9 4 18 14 10 15 14 1 35 -9 13 -24 23 -37 22 -15 -1 -17 -3 -4 -6z"/>
<path d="M5893 5366 c1 -11 9 -21 17 -23 10 -3 11 -2 4 4 -6 4 -14 15 -17 23
-5 11 -6 9 -4 -4z"/>
<path d="M3825 5346 c11 -9 25 -19 30 -24 24 -19 35 -23 29 -9 -2 7 -22 21
-42 31 -27 12 -32 13 -17 2z"/>
<path d="M3920 5280 c13 -11 25 -20 28 -20 3 0 -3 9 -13 20 -10 11 -23 20 -28
20 -6 0 0 -9 13 -20z"/>
<path d="M3240 5255 c0 -30 11 -47 77 -118 42 -45 93 -94 112 -109 20 -15 41
-32 48 -38 7 -5 16 -10 21 -10 5 0 21 -10 36 -21 15 -12 30 -18 34 -14 4 4 -1
12 -12 19 -10 6 -33 25 -52 41 -29 25 -33 34 -27 56 l8 26 120 -79 c66 -44
127 -82 135 -86 8 -3 27 -15 42 -26 15 -11 30 -17 33 -14 3 2 -52 42 -122 88
-71 46 -175 120 -232 164 -102 80 -156 119 -199 144 -21 12 -22 10 -22 -23z"/>
<path d="M5980 5260 c0 -11 4 -20 9 -20 5 0 11 9 14 20 3 13 0 20 -9 20 -8 0
-14 -9 -14 -20z"/>
<path d="M3877 5249 c7 -7 15 -10 18 -7 3 3 -2 9 -12 12 -14 6 -15 5 -6 -5z"/>
<path d="M5761 5244 c0 -11 3 -14 6 -6 3 7 2 16 -1 19 -3 4 -6 -2 -5 -13z"/>
<path d="M3986 5242 c-6 -10 44 -36 52 -27 3 3 0 5 -6 5 -6 0 -17 7 -26 15 -8
8 -17 11 -20 7z"/>
<path d="M6010 5240 c0 -5 10 -14 22 -21 18 -10 20 -9 15 6 -4 9 -7 19 -7 21
0 2 -7 4 -15 4 -8 0 -15 -4 -15 -10z"/>
<path d="M2282 5201 c2 -7 7 -12 11 -12 12 1 9 15 -3 20 -7 2 -11 -2 -8 -8z"/>
<path d="M4050 5201 c0 -8 50 -34 56 -29 1 2 -11 11 -27 20 -16 9 -29 14 -29
9z"/>
<path d="M4116 5161 c-3 -5 4 -11 16 -14 29 -8 32 -4 8 11 -10 6 -21 8 -24 3z"/>
<path d="M2235 5033 c8 -15 15 -34 15 -41 0 -7 7 -27 16 -43 10 -21 13 -38 7
-55 l-8 -25 -30 40 c-30 41 -55 53 -55 27 0 -8 -3 -23 -6 -33 -5 -14 -4 -15 4
-4 9 12 12 9 17 -15 4 -16 11 -42 16 -58 13 -42 11 -66 -5 -66 -8 0 -18 9 -21
20 -4 11 -11 18 -16 15 -14 -9 -11 -42 6 -59 9 -9 17 -41 20 -82 3 -37 10 -84
15 -104 11 -42 6 -66 -16 -74 -23 -9 -17 -35 6 -29 15 4 20 0 20 -13 0 -32 17
-2 44 77 14 41 26 90 26 107 0 18 4 32 9 32 12 0 41 74 41 104 0 13 -6 26 -14
29 -14 5 -33 103 -23 113 3 3 14 -15 26 -40 11 -25 24 -46 29 -46 5 0 14 18
21 40 9 31 9 45 0 62 -16 32 -79 100 -79 87 0 -19 -24 -4 -40 26 -21 39 -45
46 -25 8z m55 -328 c0 -24 -5 -35 -15 -35 -8 0 -15 5 -15 11 0 5 -4 8 -9 4
-15 -8 -25 15 -12 28 6 6 11 19 11 29 0 16 3 17 20 8 14 -8 20 -21 20 -45z"/>
<path d="M5771 5024 c0 -11 3 -14 6 -6 3 7 2 16 -1 19 -3 4 -6 -2 -5 -13z"/>
<path d="M5696 4995 c-9 -26 -7 -32 5 -12 6 10 9 21 6 23 -2 3 -7 -2 -11 -11z"/>
<path d="M5570 4880 c-8 -5 -10 -10 -5 -10 6 0 17 5 25 10 8 5 11 10 5 10 -5
0 -17 -5 -25 -10z"/>
<path d="M5398 4853 c7 -3 16 -2 19 1 4 3 -2 6 -13 5 -11 0 -14 -3 -6 -6z"/>
<path d="M5480 4850 c-8 -5 -26 -10 -39 -10 -13 0 -22 -3 -18 -6 9 -9 87 6 87
17 0 12 -11 11 -30 -1z"/>
<path d="M5630 4850 c-9 -6 -10 -10 -3 -10 6 0 15 5 18 10 8 12 4 12 -15 0z"/>
<path d="M4938 4843 c7 -3 16 -2 19 1 4 3 -2 6 -13 5 -11 0 -14 -3 -6 -6z"/>
<path d="M5020 4841 c-18 -6 0 -10 63 -16 48 -4 91 -5 94 -1 4 3 -18 6 -48 7
-39 0 -49 3 -34 9 16 7 13 9 -15 8 -19 0 -46 -3 -60 -7z"/>
<path d="M5313 4843 c9 -2 25 -2 35 0 9 3 1 5 -18 5 -19 0 -27 -2 -17 -5z"/>
<path d="M2140 4816 c0 -9 5 -16 10 -16 6 0 10 4 10 9 0 6 -4 13 -10 16 -5 3
-10 -1 -10 -9z"/>
<path d="M5353 4823 c9 -2 25 -2 35 0 9 3 1 5 -18 5 -19 0 -27 -2 -17 -5z"/>
<path d="M5558 4817 c-21 -6 -38 -14 -38 -19 0 -12 13 -10 56 12 43 21 38 23
-18 7z"/>
<path d="M4848 4813 c6 -2 18 -2 25 0 6 3 1 5 -13 5 -14 0 -19 -2 -12 -5z"/>
<path d="M4908 4803 c6 -2 18 -2 25 0 6 3 1 5 -13 5 -14 0 -19 -2 -12 -5z"/>
<path d="M2131 4774 c0 -11 3 -14 6 -6 3 7 2 16 -1 19 -3 4 -6 -2 -5 -13z"/>
<path d="M4988 4783 c7 -3 16 -2 19 1 4 3 -2 6 -13 5 -11 0 -14 -3 -6 -6z"/>
<path d="M5478 4783 c6 -2 18 -2 25 0 6 3 1 5 -13 5 -14 0 -19 -2 -12 -5z"/>
<path d="M5068 4773 c12 -2 32 -2 45 0 12 2 2 4 -23 4 -25 0 -35 -2 -22 -4z"/>
<path d="M5403 4773 c9 -2 25 -2 35 0 9 3 1 5 -18 5 -19 0 -27 -2 -17 -5z"/>
<path d="M5198 4763 c29 -2 74 -2 100 0 26 2 2 3 -53 3 -55 0 -76 -1 -47 -3z"/>
<path d="M3182 4587 c-32 -33 -41 -57 -22 -57 6 0 10 -7 10 -15 0 -8 -9 -15
-20 -15 -13 0 -17 -5 -14 -14 4 -11 13 -12 37 -5 17 5 33 6 36 4 2 -3 0 -5 -6
-5 -18 0 -2 -49 18 -55 20 -7 49 -53 49 -78 0 -14 20 -27 40 -27 5 0 8 21 8
47 0 48 -48 173 -66 173 -9 0 -24 31 -26 57 -3 24 -13 22 -44 -10z m42 -68
c-8 -14 -24 -10 -24 6 0 9 6 12 15 9 8 -4 12 -10 9 -15z"/>
<path d="M2099 4505 c-3 -31 2 -89 8 -99 8 -12 23 15 23 40 0 12 -7 35 -15 50
-13 25 -15 26 -16 9z"/>
<path d="M4724 4436 c11 -9 24 -16 29 -16 5 0 23 -7 40 -15 67 -30 456 -124
520 -125 22 0 28 -4 25 -17 -3 -14 -13 -18 -49 -18 -76 1 -351 70 -489 122
-16 6 -22 7 -93 18 -33 5 -47 4 -45 -3 2 -6 -6 -17 -17 -25 -17 -13 -18 -18
-6 -39 11 -21 10 -31 -6 -66 -18 -42 -40 -59 -31 -24 3 11 0 19 -8 19 -9 0
-12 -11 -10 -36 3 -20 2 -30 -1 -23 -6 14 -33 16 -33 2 0 -19 -2 -25 -12 -37
-5 -7 -7 -17 -3 -23 3 -5 -1 -10 -9 -10 -9 0 -16 -4 -16 -10 0 -5 -6 -10 -14
-10 -7 0 -16 -9 -19 -20 -3 -13 -14 -20 -29 -20 -18 0 -20 -2 -8 -10 12 -7 12
-10 1 -10 -7 0 -11 -6 -8 -14 4 -10 0 -12 -14 -9 -20 6 -48 -20 -49 -43 0 -13
210 -31 303 -26 53 4 57 5 57 28 0 14 4 22 10 19 6 -3 10 -1 10 6 0 7 8 21 17
31 9 10 16 31 16 47 0 22 4 27 17 24 12 -3 19 3 24 21 5 19 13 26 31 26 13 0
26 4 29 8 9 15 348 -7 364 -22 2 -3 -10 -30 -27 -61 -23 -40 -27 -55 -17 -55
26 0 298 50 379 69 62 15 77 16 73 5 -3 -7 -42 -68 -87 -135 -44 -67 -77 -124
-73 -128 35 -25 36 -40 5 -78 -17 -21 -31 -43 -31 -49 0 -6 -9 -19 -19 -28
-20 -19 -35 -61 -26 -76 3 -5 22 -4 43 1 110 29 142 41 137 49 -4 6 -1 10 4
10 14 0 14 -6 1 -31 -22 -41 1 -15 64 71 66 89 80 114 51 90 -10 -9 -15 -9
-15 -1 0 10 13 15 32 12 10 -1 189 238 197 263 3 12 37 62 74 113 60 81 75 95
131 121 65 30 166 117 166 142 0 9 -10 4 -27 -12 -39 -37 -170 -105 -218 -114
-22 -3 -45 -10 -50 -14 -17 -14 -198 -30 -327 -30 -228 0 -437 31 -691 102
-62 17 -143 38 -182 48 -38 10 -79 21 -90 25 -20 7 -20 6 -1 -9z m-309 -446
c-3 -5 -11 -10 -16 -10 -6 0 -7 5 -4 10 3 6 11 10 16 10 6 0 7 -4 4 -10z
m1182 -296 c-3 -3 -12 -4 -19 -1 -8 3 -5 6 6 6 11 1 17 -2 13 -5z"/>
<path d="M2100 4320 c0 -5 5 -10 10 -10 6 0 10 5 10 10 0 6 -4 10 -10 10 -5 0
-10 -4 -10 -10z"/>
<path d="M3355 4300 c-3 -6 2 -13 12 -17 10 -3 21 -8 26 -10 4 -2 7 5 7 16 0
22 -33 30 -45 11z"/>
<path d="M3520 4275 c0 -8 6 -15 14 -15 7 0 21 -12 31 -26 25 -38 53 -64 71
-64 9 0 -11 26 -48 60 -34 33 -64 60 -65 60 -2 0 -3 -7 -3 -15z"/>
<path d="M4610 4280 c0 -5 7 -7 15 -4 8 4 15 8 15 10 0 2 -7 4 -15 4 -8 0 -15
-4 -15 -10z"/>
<path d="M2060 4241 c0 -14 -42 -57 -52 -53 -11 3 -10 -32 1 -43 22 -24 16
-130 -9 -155 -11 -11 -20 -28 -20 -37 0 -13 -3 -14 -12 -5 -19 19 -28 14 -28
-15 0 -22 -2 -25 -10 -13 -18 29 -33 -7 -35 -82 -1 -40 -5 -88 -10 -106 -7
-32 -7 -33 19 -26 15 3 26 2 26 -4 0 -6 3 -19 6 -29 6 -15 4 -16 -7 -5 -41 38
-92 -6 -83 -72 5 -36 2 -46 -24 -74 -16 -18 -34 -32 -40 -32 -13 0 -18 -23
-21 -87 -1 -28 3 -54 8 -58 7 -4 6 -18 -4 -42 -8 -19 -12 -47 -9 -62 l5 -26
-25 30 c-14 16 -27 27 -30 24 -6 -6 -141 -394 -193 -554 -19 -60 -37 -111 -38
-113 -2 -2 -15 4 -28 13 -25 16 -26 16 -36 -17 -5 -18 -19 -60 -31 -93 -33
-95 -39 -143 -29 -233 11 -94 31 -152 53 -152 22 0 46 -40 46 -78 0 -18 4 -31
8 -28 4 2 18 -11 30 -29 20 -28 21 -36 11 -54 -12 -17 -10 -24 11 -46 13 -14
29 -25 37 -25 7 0 13 -11 13 -24 0 -25 16 -43 28 -32 3 4 1 15 -6 26 -9 14 -9
20 1 23 15 6 -6 43 -22 39 -6 -1 -11 5 -11 13 0 9 -7 18 -15 21 -11 4 -15 21
-15 58 0 48 -2 53 -27 62 l-28 10 22 12 c19 11 25 9 48 -15 14 -16 28 -39 31
-53 13 -58 15 -61 35 -55 12 4 19 2 19 -7 1 -19 40 31 40 51 0 10 6 25 14 36
12 17 18 15 93 -37 184 -128 456 -266 658 -333 80 -27 120 -44 103 -45 -10 0
-18 -5 -18 -11 0 -6 -7 -9 -15 -6 -18 7 -24 -2 -27 -42 -2 -26 -6 -31 -27 -31
-13 0 -30 8 -38 18 -11 15 -12 13 -1 -11 10 -23 9 -30 -3 -38 -9 -5 -10 -9 -2
-9 6 0 15 5 18 10 9 14 48 13 63 -2 7 -7 12 -21 13 -32 0 -12 3 -15 6 -8 6 16
41 15 59 -2 26 -26 10 -101 -26 -124 -17 -10 -25 -9 -45 4 -14 9 -25 23 -25
30 0 11 -4 12 -18 3 -15 -9 -23 -8 -40 7 -12 10 -22 25 -22 34 0 10 -3 11 -8
4 -4 -6 -14 -14 -22 -17 -10 -4 -8 -6 6 -6 20 -1 40 -25 35 -45 -1 -4 4 -14
10 -22 14 -17 -2 -19 -19 -2 -10 10 -20 5 -47 -25 -19 -20 -40 -37 -47 -37 -7
0 7 -12 32 -27 25 -15 47 -30 48 -35 2 -4 8 -6 12 -3 5 3 8 -3 7 -13 -1 -17
-13 -20 -122 -26 -119 -7 -194 -20 -270 -49 -22 -8 -55 -20 -72 -27 -18 -6
-33 -18 -33 -25 0 -7 -3 -20 -6 -28 -24 -63 248 -116 671 -132 194 -7 594 -23
765 -30 411 -18 1237 -13 1345 9 11 2 43 7 72 11 29 4 57 13 64 21 6 8 17 14
24 14 6 0 18 11 25 25 22 41 0 68 -76 93 -68 23 -157 33 -504 57 -118 8 -281
20 -361 26 l-146 12 -52 -29 c-37 -20 -55 -24 -60 -16 -5 8 -15 8 -42 -1 -47
-16 -91 -46 -84 -57 21 -34 -295 -64 -425 -41 -67 12 -70 14 -75 45 -5 25 1
45 31 96 20 36 47 82 58 102 13 24 29 38 41 38 34 1 74 40 41 40 -22 0 -28 17
-14 40 14 23 30 27 22 6 -3 -8 3 -16 16 -19 32 -8 35 -7 32 13 -2 13 2 20 12
20 12 0 13 5 7 22 -11 30 -27 33 -34 8 -8 -30 -51 -24 -55 7 -3 19 1 23 25 23
16 0 34 5 41 12 9 9 15 9 23 1 8 -8 26 -6 68 7 31 11 82 24 113 30 47 9 57 15
60 33 4 29 33 29 32 0 0 -13 5 -23 12 -23 20 0 28 21 13 32 -10 7 -6 8 14 4
15 -4 27 -2 27 4 0 5 -4 10 -10 10 -26 0 -6 27 33 44 38 17 44 17 69 3 26 -15
29 -14 70 14 24 16 54 29 67 29 30 0 115 47 159 88 18 17 52 44 77 60 24 16
42 32 38 35 -3 4 0 14 8 23 12 15 10 16 -21 9 -60 -13 -80 -24 -80 -43 0 -10
-10 -28 -22 -39 -27 -25 -68 -39 -68 -24 0 6 -16 11 -35 11 -19 0 -35 -4 -35
-8 0 -12 -49 -33 -61 -27 -5 4 -1 18 8 32 l17 26 -69 -7 c-141 -13 -315 -19
-315 -10 0 5 9 20 20 34 11 14 20 28 20 33 0 4 18 37 40 73 22 36 40 70 40 75
0 5 5 9 10 9 6 0 10 7 10 15 0 8 4 15 9 15 6 0 24 28 42 62 45 91 54 106 71
125 8 10 25 38 37 63 13 24 30 49 39 56 18 13 -18 20 -163 29 -157 11 -358 35
-426 52 -82 20 -97 15 -91 -27 3 -24 -1 -35 -17 -46 -11 -8 -21 -21 -21 -28 0
-7 -7 -13 -15 -13 -11 0 -12 4 -5 11 18 18 11 30 -8 13 -10 -10 -32 -18 -48
-18 -25 -1 -22 -3 15 -12 l43 -10 -6 -58 c-4 -32 -13 -80 -20 -106 -8 -27 -17
-65 -20 -85 -6 -33 -10 -38 -34 -38 -41 0 -56 14 -48 44 10 39 -20 47 -47 12
-19 -23 -27 -26 -54 -20 -21 4 -33 13 -34 23 -1 22 -17 -17 -18 -43 -1 -18 0
-18 12 -3 8 12 16 14 27 7 12 -8 12 -10 -3 -16 -15 -5 -15 -9 -5 -22 11 -13
10 -15 -5 -9 -10 4 -26 1 -37 -5 -15 -10 -17 -15 -7 -27 9 -11 9 -15 0 -18 -7
-3 -13 -13 -13 -24 0 -11 -7 -19 -17 -19 -27 0 -147 34 -245 69 -96 34 -114
37 -120 19 -2 -6 -12 -9 -21 -5 -10 4 -14 12 -11 22 3 8 1 15 -5 15 -6 0 -11
-6 -11 -12 0 -7 -8 -4 -18 8 -29 36 -111 67 -169 65 -42 -2 -53 1 -53 13 0 19
26 21 33 4 3 -8 6 -6 6 4 1 22 -44 35 -64 18 -10 -8 -15 -9 -15 -2 0 6 -19 17
-41 24 -35 10 -45 19 -61 55 -10 24 -24 43 -31 43 -13 0 -47 -54 -47 -75 0
-24 -29 -39 -53 -27 -12 6 -39 16 -59 22 -45 14 -108 81 -108 115 0 14 3 25 8
25 4 0 20 12 36 26 l28 25 -16 49 -16 50 89 178 c83 164 191 404 191 426 0 5
-36 47 -81 92 -69 72 -79 86 -73 106 5 13 8 39 7 58 -4 72 -3 83 9 97 9 11 13
11 19 1 5 -8 11 -4 18 15 13 34 14 50 2 43 -10 -7 -23 19 -14 28 4 3 12 1 19
-5 13 -11 37 32 64 117 7 21 16 44 20 49 4 6 12 32 19 58 11 45 10 49 -11 67
l-23 19 32 1 c32 0 57 20 35 28 -19 6 -14 25 13 47 16 12 37 52 56 105 39 108
44 130 30 130 -7 0 -19 16 -27 35 -18 43 -17 45 1 45 8 0 14 -6 13 -12 -2 -7
4 -13 12 -13 12 0 15 14 15 65 0 54 -3 65 -17 68 -10 2 -18 -1 -18 -7z m6
-208 c-10 -10 -19 5 -10 18 6 11 8 11 12 0 2 -7 1 -15 -2 -18z m-16 -23 c0 -5
-4 -10 -10 -10 -5 0 -10 5 -10 10 0 6 5 10 10 10 6 0 10 -4 10 -10z m-72 -169
c3 -8 -1 -12 -9 -9 -7 2 -15 10 -17 17 -3 8 1 12 9 9 7 -2 15 -10 17 -17z
m599 -2237 c-3 -3 -12 -4 -19 -1 -8 3 -5 6 6 6 11 1 17 -2 13 -5z m863 -84 c0
-5 -9 -10 -19 -10 -11 0 -23 -4 -26 -10 -3 -5 -11 -10 -17 -10 -6 0 -3 9 7 20
19 21 55 27 55 10z m-772 -126 c28 -8 26 -39 -2 -39 -13 0 -23 -11 -29 -30
-17 -52 -42 -71 -53 -41 -7 18 35 116 50 116 6 0 21 -3 34 -6z m456 -60 c-4
-17 -2 -29 7 -35 7 -4 10 -11 6 -16 -4 -4 -28 4 -52 17 -48 26 -49 29 -2 47
46 17 48 16 41 -13z"/>
<path d="M4456 4215 c-3 -8 -1 -15 4 -15 6 0 10 7 10 15 0 8 -2 15 -4 15 -2 0
-6 -7 -10 -15z"/>
<path d="M4470 4120 c0 -5 4 -10 9 -10 6 0 13 5 16 10 3 6 -1 10 -9 10 -9 0
-16 -4 -16 -10z"/>
<path d="M1930 4080 c0 -34 26 -80 44 -80 7 0 17 24 23 55 10 56 2 70 -24 44
-8 -8 -13 -8 -17 0 -13 21 -26 11 -26 -19z"/>
<path d="M4283 3973 c9 -2 23 -2 30 0 6 3 -1 5 -18 5 -16 0 -22 -2 -12 -5z"/>
<path d="M3940 3646 c0 -14 4 -27 9 -30 4 -3 8 8 7 24 -1 36 -16 41 -16 6z"/>
<path d="M4030 3652 c0 -4 4 -13 9 -20 7 -11 9 -11 14 1 3 9 -1 18 -9 21 -8 3
-14 2 -14 -2z"/>
<path d="M4127 3620 c3 -11 -2 -27 -11 -36 -27 -26 -9 -30 19 -4 29 27 32 45
9 54 -22 9 -23 8 -17 -14z"/>
<path d="M4016 3615 c-9 -26 -7 -55 5 -55 5 0 7 5 4 10 -4 6 -2 16 4 23 5 7 6
19 2 26 -6 10 -10 9 -15 -4z"/>
<path d="M4222 3601 c-15 -16 -40 -54 -57 -85 -25 -49 -28 -58 -15 -66 8 -5
24 -9 35 -9 11 0 14 3 8 6 -21 8 -15 32 22 99 36 64 59 80 95 69 27 -9 25 -19
-10 -72 -16 -24 -30 -48 -30 -53 0 -5 -12 -19 -27 -31 l-28 -22 25 6 c14 4 28
7 32 7 10 0 88 136 88 153 0 19 -21 27 -72 27 -31 0 -46 -6 -66 -29z"/>
<path d="M3927 3604 c-3 -4 -21 -10 -39 -14 -29 -7 -30 -8 -7 -9 14 -1 34 6
45 14 10 8 16 15 13 15 -3 0 -8 -3 -12 -6z"/>
<path d="M3980 3550 c-7 -22 -17 -40 -23 -40 -5 0 -7 -6 -4 -14 3 -8 1 -17 -6
-20 -7 -2 -4 -5 5 -5 11 -1 20 9 24 24 3 14 9 25 13 25 4 0 7 16 8 35 1 19 0
35 -1 35 -2 0 -9 -18 -16 -40z"/>
<path d="M4065 3548 c-2 -7 -9 -32 -14 -55 -8 -39 -7 -43 10 -43 15 0 19 7 19
39 0 22 3 46 6 55 3 9 1 16 -5 16 -7 0 -14 -6 -16 -12z"/>
<path d="M5337 3554 c-4 -4 -4 -10 -1 -15 6 -10 34 0 34 12 0 10 -24 12 -33 3z"/>
<path d="M5335 3481 c-78 -6 -80 -7 -89 -36 -14 -46 -15 -49 -31 -71 -15 -20
-14 -21 16 -21 23 0 39 -8 57 -28 30 -35 26 -88 -9 -140 -27 -38 -34 -39 -20
-3 11 30 -19 102 -49 118 -23 12 -79 2 -104 -19 -32 -27 -78 -101 -64 -101 7
0 26 -12 42 -26 22 -19 29 -35 30 -65 0 -21 3 -39 6 -39 3 0 32 23 63 51 31
28 61 48 66 45 8 -5 24 13 99 109 4 6 44 61 90 123 l82 112 -53 -2 c-28 -1
-88 -4 -132 -7z"/>
<path d="M4892 2970 c-51 -77 -92 -142 -92 -144 0 -10 67 19 130 56 112 66
134 92 136 158 1 42 -3 50 -23 59 -48 22 -57 15 -151 -129z"/>
<path d="M4655 2622 c-13 -20 -22 -38 -20 -41 7 -6 87 50 92 64 2 6 -8 11 -22
11 -19 2 -32 -7 -50 -34z"/>
<path d="M4757 2572 c-25 -27 -21 -35 8 -16 25 16 33 34 17 34 -5 0 -16 -8
-25 -18z"/>
<path d="M2890 2198 c-12 -22 -12 -22 6 -6 10 10 15 20 12 24 -4 3 -12 -5 -18
-18z"/>
<path d="M2811 2094 c-12 -14 -20 -28 -18 -31 3 -2 15 10 27 26 26 38 22 40
-9 5z"/>
<path d="M2925 2110 c-3 -5 -1 -10 4 -10 6 0 11 5 11 10 0 6 -2 10 -4 10 -3 0
-8 -4 -11 -10z"/>
<path d="M2708 1968 c6 -6 18 -8 28 -6 14 3 12 5 -9 10 -19 3 -25 2 -19 -4z"/>
<path d="M3568 1443 c7 -3 16 -2 19 1 4 3 -2 6 -13 5 -11 0 -14 -3 -6 -6z"/>
<path d="M3425 1070 c-4 -6 -3 -16 3 -22 6 -6 12 -6 17 2 4 6 3 16 -3 22 -6 6
-12 6 -17 -2z"/>
</g>
</svg>
